<svg width="20" height="20" viewBox="0 0 20 20" fill="none" xmlns="http://www.w3.org/2000/svg">
<path d="M18.2422 3.14868H1.75781C0.788555 3.14868 0 3.93724 0 4.90649V15.0933C0 16.0625 0.788555 16.8511 1.75781 16.8511H18.2422C19.2114 16.8511 20 16.0625 20 15.0933V4.90649C20 3.93724 19.2114 3.14868 18.2422 3.14868ZM18.0128 4.32056L17.7782 4.51591L10.6974 10.412C10.2933 10.7485 9.70664 10.7485 9.30258 10.412L2.22184 4.51591L1.98723 4.32056H18.0128ZM1.17188 5.16657L6.94109 9.9706L1.17188 13.8102V5.16657ZM18.2422 15.6792H1.75781C1.47469 15.6792 1.23789 15.4774 1.18363 15.21L7.8807 10.753L8.55273 11.3126C8.97203 11.6617 9.48606 11.8363 10 11.8363C10.514 11.8363 11.028 11.6617 11.4473 11.3126L12.1194 10.753L18.8164 15.21C18.7621 15.4774 18.5253 15.6792 18.2422 15.6792ZM18.8281 13.8102L13.0589 9.97063L18.8281 5.16657V13.8102Z" fill="white"/>
</svg>
