<svg width="32" height="32" viewBox="0 0 32 32" fill="none" xmlns="http://www.w3.org/2000/svg">
<path fill-rule="evenodd" clip-rule="evenodd" d="M16 32C24.8366 32 32 24.8366 32 16C32 7.16344 24.8366 0 16 0C7.16344 0 0 7.16344 0 16C0 24.8366 7.16344 32 16 32ZM14.3272 24.9648H17.2153C17.6978 24.9648 18.0903 24.5732 18.0903 24.0917V17.5899H20.1499C20.6323 17.5899 21.0247 17.1982 21.0247 16.717L21.0258 13.931C21.0258 13.6147 20.8533 13.3221 20.5758 13.1673C20.4471 13.0956 20.2974 13.0576 20.1429 13.0576H18.0903V11.9554C18.0903 11.5963 18.1386 11.4662 18.1792 11.4202C18.2038 11.3925 18.319 11.302 18.7713 11.302L20.2543 11.3014C20.7366 11.3014 21.1289 10.9098 21.1289 10.4283V7.84155C21.1289 7.3609 20.7372 6.96924 20.2556 6.96841L18.0529 6.96484C16.6934 6.96484 15.5377 7.4124 14.7108 8.25931C13.8875 9.10237 13.4523 10.2793 13.4523 11.6626V13.0577H11.7673C11.2849 13.0577 10.8924 13.4494 10.8924 13.9309V16.7169C10.8924 17.1982 11.2849 17.59 11.7673 17.59H13.4523V24.0917C13.4523 24.5732 13.8447 24.9648 14.3272 24.9648ZM17.0329 23.9096H14.5096V17.1176C14.5096 16.7961 14.2476 16.5346 13.9257 16.5346H11.9497V14.113H13.9257C14.2476 14.113 14.5096 13.8513 14.5096 13.53V11.6626C14.5096 9.41589 15.8673 8.02008 18.0521 8.02008L20.0716 8.02338V10.2462L18.771 10.2467C18.3571 10.2467 17.7634 10.2959 17.3867 10.7219C17.0749 11.0743 17.0329 11.5431 17.0329 11.9554V13.53C17.0329 13.8515 17.2949 14.113 17.6169 14.113H19.9684L19.9674 16.5346H17.617C17.295 16.5346 17.0329 16.7961 17.0329 17.1176V23.9096Z" fill="#B6B3E4"/>
</svg>
