<svg width="32" height="32" viewBox="0 0 32 32" fill="none" xmlns="http://www.w3.org/2000/svg">
<path fill-rule="evenodd" clip-rule="evenodd" d="M16 32C24.8366 32 32 24.8366 32 16C32 7.16344 24.8366 0 16 0C7.16344 0 0 7.16344 0 16C0 24.8366 7.16344 32 16 32ZM7.58008 11.8012L10.0012 11.8L10.0563 11.8105C10.0563 11.8105 10.3597 11.8416 10.6785 12.066C11.0187 12.3051 11.0957 12.598 11.0957 12.598L11.1063 12.6262L11.1156 12.6555C11.1156 12.6555 11.5288 13.9667 11.9699 14.6957C12.4471 15.4838 12.7935 15.8494 12.9438 15.9543C12.9447 15.9514 12.9454 15.9504 12.946 15.9495C12.9467 15.9484 12.9475 15.9474 12.9484 15.9437C12.9837 15.814 13.0103 15.6022 13.0199 15.3918C13.0392 14.9709 13.0023 14.5633 13.0023 14.5633L12.9988 14.5269L13 14.4906C13 14.4906 13.0038 14.342 12.9824 14.1578C12.9663 14.0193 12.9163 13.8706 12.8959 13.8097C12.8891 13.7896 12.8856 13.7791 12.8875 13.7816V13.7805C12.8688 13.7561 12.7952 13.6958 12.7106 13.6539C12.6516 13.6248 12.5807 13.6042 12.55 13.5953C12.5365 13.5915 12.5308 13.5898 12.5371 13.5906C12.4243 13.5761 12.233 13.5202 12.0965 13.3351C11.96 13.15 11.9633 12.9215 11.9934 12.8008C12.0453 12.5925 12.117 12.5227 12.1828 12.4588C12.1933 12.4486 12.2036 12.4386 12.2137 12.4281C12.3602 12.2764 12.5265 12.1628 12.7375 12.0637L12.7422 12.0613L12.7481 12.0578C13.2821 11.82 13.8831 11.7914 14.8059 11.8C15.5301 11.8068 15.8316 11.8621 16.1113 11.9266H16.1125C16.3809 11.9885 16.6497 12.0956 16.8578 12.3133C17.0659 12.5309 17.1571 12.8139 17.193 13.068C17.2392 13.3956 17.2287 13.7351 17.2155 14.1656C17.2082 14.4028 17.2 14.6677 17.2 14.9734C17.2 15.0586 17.1989 15.1446 17.1978 15.2292C17.1948 15.4533 17.192 15.668 17.2106 15.8336C17.2219 15.9349 17.2391 15.9896 17.2527 16.0293C17.2587 16.0261 17.2597 16.0256 17.2609 16.0249C17.2623 16.0241 17.264 16.0231 17.2738 16.0176C17.4482 15.9204 17.8449 15.5779 18.3766 14.7144H18.3777C18.8299 13.9815 19.2695 12.5594 19.2695 12.5594L19.2883 12.4949L19.3211 12.4375C19.3211 12.4375 19.4283 12.1685 19.7711 11.9723C19.9092 11.8931 20.2075 11.8152 20.3945 11.8152C20.4547 11.8152 20.7668 11.8131 21.1556 11.8104C21.7975 11.8059 22.6483 11.8 22.9188 11.8C22.9452 11.8 22.9718 11.7999 22.9988 11.7997C23.1833 11.7988 23.3807 11.7978 23.6008 11.8387C23.7269 11.862 23.8673 11.8986 24.018 11.9957C24.1686 12.0928 24.3223 12.2767 24.3789 12.482C24.4548 12.7579 24.4138 12.9513 24.3625 13.184C24.3112 13.4167 24.2255 13.6734 24.1047 13.9562C23.863 14.522 23.479 15.1925 22.9316 15.8898C22.7093 16.173 22.5125 16.4163 22.3439 16.6247C22.1869 16.8188 22.0544 16.9826 21.9484 17.1203C21.7376 17.3943 21.6587 17.5603 21.6508 17.5809C21.6516 17.5811 21.6523 17.5813 21.6531 17.5814C21.6587 17.5826 21.6644 17.5839 21.6941 17.6207C21.7892 17.7384 22.0296 17.9596 22.382 18.2723C23.7464 19.4835 24.0882 19.9789 24.1586 20.091C24.3513 20.3966 24.4515 20.7442 24.3731 21.0754C24.2946 21.4066 24.061 21.6276 23.8645 21.748C23.4713 21.9889 23.0887 21.9976 23.0887 21.9976L23.0617 22H20.568C20.568 22 19.8117 22.0283 19.1148 21.5664C18.7941 21.356 18.4962 21.105 18.2255 20.8769C18.0856 20.759 17.9529 20.6473 17.8281 20.5504C17.6447 20.408 17.4793 20.2999 17.3723 20.2516C17.3226 20.2291 17.2964 20.223 17.282 20.2199C17.2773 20.22 17.2756 20.216 17.2742 20.2161C17.2714 20.2163 17.2697 20.2332 17.2457 20.3348C17.2074 20.4972 17.2 20.7887 17.2 21.0894C17.2 21.3685 16.9839 21.728 16.7324 21.8582C16.481 21.9884 16.2541 22 16 22H15.2277C13.7388 22 12.0671 21.4608 10.5039 19.8273C8.28783 17.5131 6.52992 13.2059 6.50665 13.1488V13.1476C6.50665 13.1476 6.44332 13.0239 6.41524 12.8594C6.38706 12.6942 6.37845 12.3942 6.60391 12.1363L6.60508 12.1351L6.60626 12.134C6.84146 11.8679 7.07125 11.84 7.23684 11.8199C7.2497 11.8183 7.26217 11.8168 7.27423 11.8152C7.44155 11.7934 7.58008 11.8012 7.58008 11.8012ZM9.88263 13.0076C9.87486 13.0048 9.86772 13.0022 9.86172 13L7.76641 13.0012C8.00468 13.547 9.592 17.1398 11.3711 18.9976C12.7395 20.4277 14.0082 20.8 15.2277 20.8H16C16.0111 20.8 16.0115 20.7999 16.0125 20.7997C16.0134 20.7995 16.0146 20.7992 16.0223 20.7988C16.0226 20.7668 16.0226 20.7349 16.0227 20.7028C16.0231 20.4991 16.0236 20.2923 16.0785 20.0594C16.1671 19.6838 16.4429 19.2108 16.9398 19.0621C17.2832 18.9593 17.6094 19.0418 17.8668 19.1582C18.1242 19.2746 18.3461 19.4331 18.5641 19.6023C18.7335 19.7339 18.9011 19.8738 19.0633 20.0092C19.3184 20.2222 19.5602 20.424 19.7746 20.5644H19.7758L19.777 20.5656C20.1085 20.7854 20.5551 20.8 20.5551 20.8H20.5586H22.9867C22.9951 20.7981 23.0841 20.7718 23.159 20.7484C23.1557 20.7417 23.1558 20.7426 23.1559 20.7444C23.1561 20.7474 23.1564 20.7528 23.1426 20.7309V20.7297L23.1419 20.7286C23.1176 20.6897 22.8926 20.3307 21.5852 19.1699C21.5422 19.1318 21.5006 19.0951 21.4602 19.0594C21.1712 18.8043 20.9463 18.6058 20.7602 18.3754C20.5481 18.1128 20.3929 17.6985 20.4742 17.3312C20.5555 16.9639 20.7502 16.7099 20.9981 16.3879C21.1223 16.2264 21.2658 16.0489 21.4306 15.8452C21.5943 15.6426 21.7792 15.414 21.9871 15.1492C22.4712 14.5325 22.8058 13.9405 23.0008 13.484C23.0837 13.2898 23.1289 13.1389 23.1625 13.0094C23.1356 13.0083 23.1122 13.0069 23.0891 13.0056C23.041 13.0027 22.9942 13 22.9188 13C22.6856 13 21.9602 13.005 21.3431 13.0093C20.8864 13.0125 20.4891 13.0152 20.3945 13.0152C20.3851 13.0152 20.3851 13.0147 20.3851 13.0141C20.3851 13.0136 20.3852 13.0131 20.3805 13.0129L20.3699 13.0199L20.3671 13.0299C20.3171 13.2046 19.9702 14.4169 19.3984 15.3437C18.807 16.3043 18.3267 16.8045 17.8586 17.0652C17.3905 17.326 16.8939 17.2706 16.634 17.1098C16.1777 16.8273 16.0598 16.3445 16.0176 15.9672C15.9859 15.6839 15.9919 15.4101 15.9968 15.1831C15.9985 15.1076 16 15.0372 16 14.9734C16 14.6033 16.0063 14.2846 16.0114 14.0213C16.0189 13.6393 16.0242 13.3735 16.0047 13.2355C15.9972 13.1821 15.9904 13.1552 15.9867 13.1431C15.9722 13.1354 15.9318 13.1168 15.8418 13.0961C15.8341 13.0943 15.8265 13.0925 15.819 13.0908C15.5686 13.033 15.4523 13.0062 14.7941 13C14.3885 12.9962 14.2073 13.03 14.0271 13.0636C13.9712 13.0741 13.9155 13.0845 13.8531 13.0937C14.0882 13.4243 14.1434 13.7535 14.1742 14.0184C14.2047 14.2802 14.1995 14.4748 14.1988 14.4986L14.1988 14.4988L14.1991 14.5018C14.2041 14.5565 14.2411 14.9581 14.2188 15.4469C14.2068 15.7085 14.1804 15.9851 14.1063 16.2578C14.0322 16.5305 13.925 16.8578 13.5414 17.057C13.2544 17.2063 12.6898 17.236 12.2699 16.948C11.8496 16.6598 11.4646 16.1776 10.9434 15.3168C10.3768 14.3805 10.012 13.1338 9.98887 13.0547L9.98829 13.0527C9.98722 13.0512 9.98402 13.0482 9.98101 13.0453C9.98044 13.0447 9.97988 13.0442 9.97934 13.0437C9.96519 13.0377 9.91753 13.0203 9.88263 13.0076ZM9.98035 13.0418C9.98183 13.0428 9.98366 13.044 9.98588 13.0456L9.96719 13.0023L9.98035 13.0418ZM9.98647 13.046C9.98705 13.0464 9.98766 13.0468 9.98829 13.0472V13.0469L9.98647 13.046ZM15.9836 13.1346C15.9836 13.1345 15.9838 13.1349 15.9842 13.136L15.9836 13.1346ZM20.3684 13.0113C20.3686 13.0118 20.3687 13.0123 20.3688 13.0129C20.372 13.0111 20.3716 13.0119 20.3718 13.0122C20.3719 13.0124 20.3722 13.0124 20.3734 13.0117C20.3718 13.0116 20.3701 13.0114 20.3684 13.0113Z" fill="#B6B3E4"/>
</svg>
